<?xml version="1.0" encoding="UTF-8"?>
<svg xmlns="http://www.w3.org/2000/svg" xmlns:xlink="http://www.w3.org/1999/xlink" viewBox="0 0 395.68 441.35">
  <defs>
    <style>
      .cls-1 {
        fill: url(#linear-gradient-4);
      }

      .cls-1, .cls-2 {
        fill-rule: evenodd;
      }

      .cls-3 {
        fill: url(#linear-gradient-2);
      }

      .cls-4 {
        fill: url(#linear-gradient-17);
      }

      .cls-5 {
        fill: url(#linear-gradient-15);
      }

      .cls-6 {
        fill: url(#linear-gradient-18);
      }

      .cls-7 {
        fill: url(#linear-gradient-28);
      }

      .cls-8 {
        fill: url(#linear-gradient-14);
      }

      .cls-9 {
        fill: url(#linear-gradient-36);
      }

      .cls-10 {
        fill: url(#linear-gradient-20);
      }

      .cls-11 {
        fill: url(#linear-gradient-6);
      }

      .cls-12 {
        fill: url(#linear-gradient-35);
      }

      .cls-13 {
        fill: url(#linear-gradient-32);
      }

      .cls-14 {
        fill: url(#linear-gradient-11);
      }

      .cls-15 {
        fill: url(#linear-gradient-10);
      }

      .cls-16 {
        fill: url(#linear-gradient-37);
      }

      .cls-17 {
        fill: url(#linear-gradient-16);
      }

      .cls-18 {
        fill: url(#radial-gradient-2);
      }

      .cls-18, .cls-19, .cls-20 {
        opacity: .92;
      }

      .cls-2 {
        fill: url(#linear-gradient-5);
      }

      .cls-21 {
        fill: url(#linear-gradient-31);
      }

      .cls-22 {
        fill: url(#linear-gradient-21);
      }

      .cls-23 {
        fill: url(#linear-gradient-25);
      }

      .cls-19 {
        fill: url(#radial-gradient-3);
      }

      .cls-24 {
        fill: url(#linear-gradient-34);
      }

      .cls-25 {
        fill: url(#linear-gradient-7);
      }

      .cls-26 {
        fill: url(#linear-gradient-24);
      }

      .cls-20 {
        fill: url(#radial-gradient);
      }

      .cls-27 {
        fill: url(#linear-gradient-9);
      }

      .cls-28 {
        fill: url(#linear-gradient-22);
      }

      .cls-29 {
        fill: url(#linear-gradient-3);
      }

      .cls-30 {
        fill: url(#linear-gradient);
      }

      .cls-31 {
        fill: url(#linear-gradient-27);
      }

      .cls-32 {
        fill: url(#linear-gradient-33);
      }

      .cls-33 {
        fill: url(#linear-gradient-38);
      }

      .cls-34 {
        fill: url(#linear-gradient-29);
      }

      .cls-35 {
        fill: url(#linear-gradient-30);
      }

      .cls-36 {
        fill: url(#linear-gradient-23);
      }

      .cls-37 {
        fill: url(#linear-gradient-19);
      }

      .cls-38 {
        fill: url(#linear-gradient-8);
      }

      .cls-39 {
        fill: url(#linear-gradient-12);
      }

      .cls-40 {
        fill: url(#linear-gradient-13);
      }

      .cls-41 {
        fill: url(#linear-gradient-26);
      }
    </style>
    <linearGradient id="linear-gradient" x1="81.45" y1="30.43" x2="139.38" y2="120.21" gradientTransform="translate(-84.04 128.28) rotate(-30)" gradientUnits="userSpaceOnUse">
      <stop offset="0" stop-color="#8c9f90"/>
      <stop offset=".9" stop-color="#40663d"/>
    </linearGradient>
    <linearGradient id="linear-gradient-2" x1="75.99" y1="412.61" x2="131.01" y2="334.41" gradientTransform="translate(-84.04 128.28) rotate(-30)" gradientUnits="userSpaceOnUse">
      <stop offset="0" stop-color="#a09db6"/>
      <stop offset=".9" stop-color="#17668b"/>
    </linearGradient>
    <linearGradient id="linear-gradient-3" x1="433.09" y1="219.5" x2="323.03" y2="220.95" gradientTransform="translate(-84.04 128.28) rotate(-30)" gradientUnits="userSpaceOnUse">
      <stop offset="0" stop-color="#c09f64"/>
      <stop offset="1" stop-color="#b86e29"/>
    </linearGradient>
    <radialGradient id="radial-gradient" cx="258.38" cy="113.09" fx="258.38" fy="113.09" r="124.09" gradientTransform="translate(-85.04 125.45) rotate(-30)" gradientUnits="userSpaceOnUse">
      <stop offset="0" stop-color="#fee165"/>
      <stop offset=".86" stop-color="#ad9732"/>
    </radialGradient>
    <radialGradient id="radial-gradient-2" cx="24.03" cy="221.71" fx="24.03" fy="221.71" r="127.93" gradientTransform="translate(-85.04 125.45) rotate(-30)" gradientUnits="userSpaceOnUse">
      <stop offset="0" stop-color="#4a898e"/>
      <stop offset=".89" stop-color="#3e5d59"/>
    </radialGradient>
    <radialGradient id="radial-gradient-3" cx="258.08" cy="329.49" fx="258.08" fy="329.49" r="126.8" gradientTransform="translate(-85.04 125.45) rotate(-30)" gradientUnits="userSpaceOnUse">
      <stop offset="0" stop-color="#e48284"/>
      <stop offset=".89" stop-color="#a11e3f"/>
    </radialGradient>
    <linearGradient id="linear-gradient-4" x1="322.07" y1="138.13" x2="372.99" y2="138.13" gradientUnits="userSpaceOnUse">
      <stop offset="0" stop-color="#fff"/>
      <stop offset=".3" stop-color="#f6f6f6"/>
      <stop offset=".77" stop-color="#dedede"/>
      <stop offset="1" stop-color="#d1d1d1"/>
    </linearGradient>
    <linearGradient id="linear-gradient-5" y1="120.49" x2="368.85" y2="120.49" xlink:href="#linear-gradient-4"/>
    <linearGradient id="linear-gradient-6" x1="191.55" y1="63.87" x2="227.01" y2="63.87" xlink:href="#linear-gradient-4"/>
    <linearGradient id="linear-gradient-7" x1="167.15" y1="31.21" x2="202.57" y2="31.21" xlink:href="#linear-gradient-4"/>
    <linearGradient id="linear-gradient-8" x1="199.91" y1="35.46" x2="227.09" y2="35.46" xlink:href="#linear-gradient-4"/>
    <linearGradient id="linear-gradient-9" x1="167.02" y1="59.87" x2="194.39" y2="59.87" xlink:href="#linear-gradient-4"/>
    <linearGradient id="linear-gradient-10" x1="99.48" y1="302.09" x2="111.74" y2="157.58" gradientUnits="userSpaceOnUse">
      <stop offset="0" stop-color="#a064a9"/>
      <stop offset=".21" stop-color="#975ea5"/>
      <stop offset=".56" stop-color="#7f4f9a"/>
      <stop offset=".99" stop-color="#593688"/>
      <stop offset="1" stop-color="#583688"/>
    </linearGradient>
    <linearGradient id="linear-gradient-11" x1="143.69" y1="305.84" x2="155.95" y2="161.33" xlink:href="#linear-gradient-10"/>
    <linearGradient id="linear-gradient-12" x1="183.53" y1="309.22" x2="195.78" y2="164.71" xlink:href="#linear-gradient-10"/>
    <linearGradient id="linear-gradient-13" x1="228.4" y1="313.03" x2="240.66" y2="168.51" xlink:href="#linear-gradient-10"/>
    <linearGradient id="linear-gradient-14" x1="274" y1="316.89" x2="286.26" y2="172.38" xlink:href="#linear-gradient-10"/>
    <linearGradient id="linear-gradient-15" x1="271.67" y1="255.68" x2="377.45" y2="326.61" gradientUnits="userSpaceOnUse">
      <stop offset="0" stop-color="#fff"/>
      <stop offset=".32" stop-color="#f6f6f6"/>
      <stop offset=".64" stop-color="#e9e9ea"/>
      <stop offset="1" stop-color="#d1d1d1"/>
    </linearGradient>
    <linearGradient id="linear-gradient-16" x1="268.78" y1="259.99" x2="374.56" y2="330.92" xlink:href="#linear-gradient-4"/>
    <linearGradient id="linear-gradient-17" x1="4.19" y1="100.44" x2="114.27" y2="187.12" gradientUnits="userSpaceOnUse">
      <stop offset="0" stop-color="#fff"/>
      <stop offset=".14" stop-color="#e7e7e7"/>
      <stop offset=".55" stop-color="#acacac"/>
      <stop offset=".84" stop-color="#878787"/>
      <stop offset="1" stop-color="#797979"/>
    </linearGradient>
    <linearGradient id="linear-gradient-18" x1="34.14" y1="112.71" x2="72.66" y2="143.04" xlink:href="#linear-gradient-17"/>
    <linearGradient id="linear-gradient-19" x1="29.48" y1="122.65" x2="82.04" y2="176.66" xlink:href="#linear-gradient-17"/>
    <linearGradient id="linear-gradient-20" x1="28.33" y1="285.96" x2="82.37" y2="340" xlink:href="#linear-gradient-17"/>
    <linearGradient id="linear-gradient-21" x1="171.08" y1="336.75" x2="282.98" y2="432.75" xlink:href="#linear-gradient-17"/>
    <linearGradient id="linear-gradient-22" x1="133.44" y1="380.63" x2="245.34" y2="476.63" xlink:href="#linear-gradient-17"/>
    <linearGradient id="linear-gradient-23" x1="174.05" y1="333.29" x2="285.95" y2="429.29" xlink:href="#linear-gradient-17"/>
    <linearGradient id="linear-gradient-24" x1="140.2" y1="372.74" x2="252.1" y2="468.74" xlink:href="#linear-gradient-17"/>
    <linearGradient id="linear-gradient-25" x1="147.2" y1="364.59" x2="259.1" y2="460.59" xlink:href="#linear-gradient-17"/>
    <linearGradient id="linear-gradient-26" x1="167.45" y1="340.99" x2="279.34" y2="436.99" xlink:href="#linear-gradient-17"/>
    <linearGradient id="linear-gradient-27" x1="148.59" y1="362.97" x2="260.49" y2="458.97" xlink:href="#linear-gradient-17"/>
    <linearGradient id="linear-gradient-28" x1="132.44" y1="381.79" x2="244.34" y2="477.79" xlink:href="#linear-gradient-17"/>
    <linearGradient id="linear-gradient-29" x1="136.35" y1="377.24" x2="248.24" y2="473.24" xlink:href="#linear-gradient-17"/>
    <linearGradient id="linear-gradient-30" x1="159.17" y1="350.63" x2="271.07" y2="446.63" xlink:href="#linear-gradient-17"/>
    <linearGradient id="linear-gradient-31" x1="175.15" y1="332" x2="287.05" y2="428" xlink:href="#linear-gradient-17"/>
    <linearGradient id="linear-gradient-32" x1="151.28" y1="359.83" x2="263.18" y2="455.83" xlink:href="#linear-gradient-17"/>
    <linearGradient id="linear-gradient-33" x1="153.41" y1="357.35" x2="265.31" y2="453.35" xlink:href="#linear-gradient-17"/>
    <linearGradient id="linear-gradient-34" x1="167.45" y1="340.98" x2="279.35" y2="436.98" xlink:href="#linear-gradient-17"/>
    <linearGradient id="linear-gradient-35" x1="161.28" y1="356.4" x2="218.15" y2="392.98" xlink:href="#linear-gradient-17"/>
    <linearGradient id="linear-gradient-36" x1="162.3" y1="354.82" x2="219.17" y2="391.39" xlink:href="#linear-gradient-17"/>
    <linearGradient id="linear-gradient-37" x1="163.09" y1="353.6" x2="219.95" y2="390.17" xlink:href="#linear-gradient-17"/>
    <linearGradient id="linear-gradient-38" x1="163.87" y1="352.37" x2="220.74" y2="388.94" xlink:href="#linear-gradient-17"/>
  </defs>
  <g id="Layer_2" data-name="Layer 2">
    <path class="cls-30" d="m164.55,17.69c2.89-5.03,6.65-9.05,10.94-12.07-.74.38-1.48.77-2.21,1.19L25.1,92.37C9.79,101.2.36,117.54.36,135.21v171.11c0,1.5.07,2.99.21,4.47.34-5.52,1.93-11.12,4.99-16.44L164.55,17.69Z"/>
    <path class="cls-3" d="m38.12,350.76c-6.01-.01-11.55-1.38-16.42-3.75,1.1.76,2.23,1.48,3.4,2.16l148.19,85.55c15.31,8.84,34.17,8.84,49.47,0l148.19-85.55c.5-.29.99-.58,1.47-.88-4.58,2-9.69,3.12-15.2,3.11l-319.09-.64Z"/>
    <path class="cls-29" d="m229.79,17.63l160.1,277.29c3.68,6.37,5.25,13.14,5.09,19.7.46-2.72.7-5.49.7-8.3v-171.11c0-17.68-9.43-34.01-24.74-42.85L222.75,6.81c-2.56-1.48-5.22-2.7-7.94-3.69,5.96,3.13,11.21,7.96,14.98,14.5Z"/>
    <path class="cls-20" d="m356.79,90.24c5.8,0,11.17,1.25,15.93,3.45-.7-.45-1.41-.9-2.14-1.32L222.33,6.65c-15.31-8.86-34.18-8.87-49.48-.03L24.71,92.15c-1.3.75-2.94,2.33-4.15,3.18,4.95-2.47,10.98-4.65,17.12-4.66l319.12-.43Z"/>
    <path class="cls-18" d="m5.14,147.1c-3-5.22-4.19-11.03-4.57-16.45C.46,131.99,0,133.66,0,135.01l.11,171.25c.01,17.69,9.45,34.04,24.77,42.9l148.25,85.72c.5.29,1,.56,1.5.83-4.02-2.97-7.56-6.84-10.3-11.63L5.14,147.1Z"/>
    <path class="cls-19" d="m389.51,146.78l-159.93,277.42c-3.67,6.37-8.75,11.12-14.51,14.26,2.58-.96,5.11-2.14,7.54-3.54l148.14-85.53c15.3-8.84,24.72-25.18,24.71-42.87l-.11-171.25c0-2.96-.27-5.88-.79-8.73.27,6.73-1.28,13.7-5.05,20.24Z"/>
  </g>
  <g id="Layer_3" data-name="Layer 3">
    <g>
      <path class="cls-1" d="m335.94,133.7h9.3v28.81h-9.3v-28.81Zm13.87-10.16h9.31v38.97h-9.31v-38.97Zm13.87-9.79h9.31v48.76h-9.31v-48.76Zm-41.61,28.63h9.31v20.13h-9.31v-20.13Z"/>
      <polygon class="cls-2" points="368.85 100.8 364.23 103.47 365.75 104.35 356.82 118.71 347.67 118.71 341.33 129.64 333.76 129.64 322.07 138.16 322.07 140.17 334.29 131.26 342.26 131.26 348.61 120.33 357.72 120.33 367.16 105.16 368.85 106.14 368.85 100.8"/>
    </g>
    <g>
      <path class="cls-11" d="m227.01,50.03l-7.45,6.38-8.36-5.56c-1.45,6.46-7.2,11.3-14.1,11.32l-5.55,6.49,6.02,9.05c15.57-.26,28.25-12.35,29.44-27.67Z"/>
      <path class="cls-25" d="m182.84,44.8c1.33-6.63,7.17-11.63,14.19-11.64l5.54-8.33-6.17-7.2c-15.33.33-27.83,12.13-29.26,27.16l8.82-5.87,6.87,5.88Z"/>
      <path class="cls-38" d="m199.94,33.45c6.63,1.34,11.62,7.19,11.62,14.21,0,.1-.01.21-.02.31l7.82,5.2,7.58-6.49.14.16c-.41-15.26-12.19-27.69-27.18-29.1l5.89,6.89-5.86,8.81Z"/>
      <path class="cls-27" d="m193.99,61.83c-6.43-1.39-11.27-7.05-11.42-13.86l-6.8-5.82-8.76,5.83c.16,15.55,12.14,28.27,27.38,29.61l-6.07-9.13,5.67-6.62Z"/>
    </g>
    <g>
      <path class="cls-15" d="m127.62,204.88h-13.76v44.85h-11.29v-44.85h-13.79v-11.15h38.84v11.15Z"/>
      <path class="cls-14" d="m145.2,204.81v10.94h19.32v11.22h-19.32v11.57h22.51v11.19h-33.77v-56.01h33.77v11.08h-22.51Z"/>
      <path class="cls-39" d="m187.23,204.81v11.29h19.32v11.22h-19.32v22.48h-11.26v-56.22h33.77v11.22h-22.51Z"/>
      <path class="cls-40" d="m257.65,237.71h-5.63v12.02h-11.22v-12.02h-28.87l19.14-44.23,11.85.07-14.25,32.94h12.13v-15.53h11.22v15.53h5.63v11.22Z"/>
      <path class="cls-8" d="m300.93,231.35c0,10.53-8.72,19.28-19.84,19.28s-19.56-7.16-19.56-18.73c0-5.49,1.77-8.2,18-38.18l12.82.07-11.64,20.71c1.25-.31,2.5-.49,3.75-.49,8.48,0,16.47,7.26,16.47,17.34Zm-11.15-.35c0-4.59-3.82-8.48-8.48-8.48s-8.48,3.86-8.48,8.51,3.79,8.41,8.44,8.41,8.51-3.86,8.51-8.44Z"/>
    </g>
    <g>
      <path class="cls-5" d="m365.88,289.55l.33.24,1.18-1.6c.55-.74.39-1.79-.36-2.34l-2.5-1.83c-.74-.55-1.79-.39-2.34.36l-1.16,1.58c-2.68-1.57-5.64-2.71-8.78-3.31v-4.14h1.74c.95,0,1.72-.77,1.72-1.72v-1.61c0-.95-.77-1.72-1.72-1.72h-14.12c-.95,0-1.72.77-1.72,1.72v1.61c0,.95.77,1.72,1.72,1.72h1.74v4.14c-3.12.6-6.05,1.73-8.71,3.27l-1.13-1.54c-.55-.74-1.59-.91-2.34-.36l-2.5,1.83c-.74.55-.91,1.59-.36,2.34l1.16,1.58c-5.44,5.12-8.86,12.36-8.86,20.4,0,15.46,12.58,28.05,28.05,28.05s28.05-12.58,28.05-28.05c0-8.16-3.52-15.49-9.1-20.62Zm-18.95,45.61c-13.78,0-24.99-11.21-24.99-24.99s11.21-24.99,24.99-24.99,24.99,11.21,24.99,24.99-11.21,24.99-24.99,24.99Z"/>
      <path class="cls-17" d="m346.93,310.17v-21.77c-12.02,0-21.77,9.75-21.77,21.77s9.75,21.77,21.77,21.77c9.14,0,16.95-5.63,20.18-13.61l-20.18-8.16Z"/>
    </g>
    <g>
      <path class="cls-4" d="m48.54,170.05c-2.02,0-4.04-.52-5.85-1.56l-19.92-11.5c-3.61-2.08-5.85-5.96-5.85-10.12v-23c0-4.16,2.24-8.04,5.85-10.12l19.92-11.5c3.61-2.08,8.09-2.08,11.69,0l19.92,11.5c3.61,2.08,5.85,5.96,5.85,10.12v23c0,4.16-2.24,8.04-5.85,10.12l-19.92,11.5c-1.8,1.04-3.82,1.56-5.85,1.56Zm0-65.92c-1.43,0-2.85.37-4.12,1.1l-19.92,11.5c-2.54,1.47-4.12,4.2-4.12,7.14v23c0,2.93,1.58,5.67,4.12,7.14l19.92,11.5c2.54,1.47,5.7,1.47,8.24,0l19.92-11.5c2.54-1.47,4.12-4.2,4.12-7.14v-23c0-2.93-1.58-5.67-4.12-7.14l-19.92-11.5c-1.27-.73-2.7-1.1-4.12-1.1Z"/>
      <g>
        <path class="cls-6" d="m39.31,126.35c0-5.1,4.13-9.24,9.24-9.24s9.24,4.13,9.24,9.24c0,.03,0,.06,0,.09,1.03.17,1.97.6,2.75,1.23.05-.43.07-.87.07-1.31,0-6.66-5.4-12.05-12.05-12.05s-12.05,5.4-12.05,12.05c0,.44.03.88.07,1.31.78-.63,1.72-1.06,2.75-1.23,0-.03,0-.06,0-.09Z"/>
        <path class="cls-37" d="m60.53,129.37c-.78-.63-1.73-1.06-2.75-1.23-.31-.06-.64-.09-.97-.09h-16.52c-.33,0-.65.03-.97.09-1.03.17-1.97.6-2.74,1.23-1.35,1.08-2.22,2.74-2.22,4.61v16.52c0,3.27,2.65,5.93,5.93,5.93h16.52c3.27,0,5.93-2.65,5.93-5.93v-16.52c0-1.87-.86-3.53-2.21-4.61Zm-9.08,20.09h-5.81c-.77,0-1.26-.84-.87-1.51l1.63-2.82c-.88-.66-1.45-1.71-1.45-2.88,0-1.99,1.61-3.59,3.59-3.59s3.59,1.61,3.59,3.59c0,1.18-.57,2.23-1.45,2.88l1.63,2.82c.39.67-.09,1.51-.87,1.51Z"/>
      </g>
    </g>
    <path class="cls-10" d="m64.15,311.18c8.59,0,15.55-5.61,15.55-12.54s-6.96-12.54-15.55-12.54c-1.18,0-2.32.11-3.42.31-3.16-5.26-9.37-8.84-16.5-8.84-9.5,0-17.34,6.34-18.56,14.55-.02,0-.05,0-.07,0-2.47,0-4.46,1.79-4.46,4,0,.45.09.88.24,1.28-2.67,1.37-4.42,3.63-4.42,6.19,0,4.19,4.68,7.58,10.45,7.58h3.93v4.01l-2.48,2.48h-4.2c-.48-.84-1.38-1.41-2.41-1.41-1.54,0-2.79,1.25-2.79,2.79s1.25,2.79,2.79,2.79c1.15,0,2.13-.69,2.56-1.68h5.08l3.94-3.94v-5.04h6.65v9.23c-.91.46-1.55,1.4-1.55,2.49,0,1.54,1.25,2.79,2.79,2.79s2.79-1.25,2.79-2.79c0-1.09-.63-2.03-1.55-2.49v-9.23h4.11v18.48c-.91.46-1.55,1.4-1.55,2.49,0,1.54,1.25,2.79,2.79,2.79s2.79-1.25,2.79-2.79c0-1.09-.63-2.03-1.55-2.49l.05-18.48h4.19v8.56l6.25,6.25h9.45c.24.47.61.89,1.1,1.17,1.34.77,3.04.31,3.82-1.02.77-1.34.31-3.04-1.02-3.82-1.34-.77-3.04-.31-3.82,1.02-.03.05-.04.1-.07.15h-8.43l-4.79-4.79v-7.53h3.79v3.36l4.98,4.98h4.37c.43.99,1.41,1.68,2.56,1.68,1.54,0,2.79-1.25,2.79-2.79s-1.25-2.79-2.79-2.79c-1.04,0-1.93.57-2.41,1.41h-3.48l-3.52-3.52v-2.32h1.56Z"/>
    <path class="cls-22" d="m199.39,357.76c-.46-.83-1.33-1.4-2.34-1.4s-1.88.57-2.34,1.4c-.21.38-.34.82-.34,1.28,0,.65.24,1.24.63,1.71.49.59,1.22.97,2.05.97s1.55-.38,2.05-.97c.39-.46.63-1.06.63-1.71,0-.47-.13-.9-.34-1.28Z"/>
    <path class="cls-28" d="m194.1,427.27c-.74-.22-1.47-.52-2.16-.91l-20.25-11.69c-1.15-.67-2.14-1.54-2.94-2.57-.52.89-1.41,1.54-2.47,1.72,1.05,1.38,2.36,2.55,3.9,3.44l20.25,11.69c1,.58,2.06,1.01,3.15,1.3-.08-.3-.14-.61-.14-.94,0-.76.24-1.47.64-2.05Z"/>
    <path class="cls-36" d="m200.07,360.99c.72.22,1.43.51,2.1.89l20.25,11.69c1.1.64,2.04,1.47,2.82,2.43.47-.93,1.31-1.63,2.34-1.88-1.01-1.25-2.24-2.33-3.67-3.15l-20.25-11.69c-1.01-.58-2.09-1.02-3.19-1.32.11.34.18.69.18,1.07,0,.72-.22,1.39-.58,1.95Z"/>
    <path class="cls-26" d="m166.65,406.85c-.03-.34-.07-.68-.07-1.03v-23.39c0-.47.03-.93.1-1.38-.32.1-.66.16-1.02.16-.72,0-1.39-.22-1.96-.58-.08.59-.13,1.2-.13,1.8v23.39c0,.5.03.99.09,1.48.57-.38,1.25-.6,1.99-.6.34,0,.67.06.99.15Z"/>
    <path class="cls-23" d="m225.35,412.1c-.8,1.02-1.78,1.9-2.94,2.57l-20.25,11.69c-.69.4-1.41.69-2.16.91.4.58.64,1.29.64,2.05,0,.33-.06.64-.14.94,1.09-.29,2.15-.73,3.15-1.3l20.25-11.69c1.54-.89,2.86-2.07,3.9-3.44-1.05-.19-1.94-.83-2.46-1.72Z"/>
    <path class="cls-41" d="m227.43,381.05c.06.46.1.92.1,1.38v23.39c0,.35-.03.69-.07,1.03.32-.09.64-.15.99-.15.74,0,1.42.22,1.99.6.06-.49.09-.98.09-1.48v-23.39c0-.61-.04-1.21-.13-1.8-.56.37-1.23.58-1.96.58-.35,0-.69-.07-1.01-.16Z"/>
    <path class="cls-31" d="m168.24,376.9c-.29-1.06-1.21-1.84-2.33-1.94-.08,0-.16-.02-.24-.02-1.48,0-2.68,1.2-2.68,2.68,0,.8.36,1.51.91,2,.47.42,1.09.68,1.77.68.45,0,.86-.12,1.23-.31.86-.45,1.45-1.33,1.45-2.37,0-.25-.04-.48-.11-.71Z"/>
    <path class="cls-7" d="m166.82,407.88c-.35-.17-.74-.27-1.15-.27-.71,0-1.35.28-1.83.73-.52.49-.84,1.18-.84,1.94,0,1.48,1.2,2.68,2.68,2.68.01,0,.02,0,.03,0,1.13-.01,2.09-.73,2.47-1.73.11-.29.18-.61.18-.95,0-1.06-.63-1.98-1.53-2.41Z"/>
    <path class="cls-34" d="m199.02,427.51c-.49-.53-1.18-.87-1.96-.87s-1.48.34-1.96.87c-.44.48-.71,1.11-.71,1.81,0,.42.1.8.27,1.15.43.9,1.34,1.52,2.41,1.52s1.98-.63,2.41-1.52c.17-.35.27-.74.27-1.15,0-.7-.27-1.33-.71-1.81Z"/>
    <path class="cls-35" d="m230.31,408.14c-.48-.47-1.14-.76-1.87-.76-.39,0-.76.09-1.1.24-.93.42-1.58,1.35-1.58,2.44,0,.39.09.76.24,1.09.42.93,1.35,1.59,2.44,1.59.04,0,.08-.01.12-.01,1.42-.06,2.56-1.23,2.56-2.67,0-.75-.31-1.43-.81-1.91Z"/>
    <path class="cls-21" d="m228.44,375.05c-.06,0-.11.01-.17.02-1.13.07-2.06.83-2.38,1.87-.08.25-.13.51-.13.79,0,1.04.6,1.94,1.48,2.38.36.18.77.3,1.2.3.69,0,1.32-.27,1.79-.7.54-.49.88-1.19.88-1.98,0-1.48-1.2-2.68-2.68-2.68Z"/>
    <path class="cls-13" d="m214.43,390.8h-6.7v-13.19h-1.76c-1.73,0-3.13,1.41-3.13,3.13v10.06h-3.78v-13.07h-1.57c-1.84,0-3.32,1.49-3.32,3.32v9.75h-3.78v-8.14h-1.77c-1.73,0-3.13,1.4-3.13,3.13v5.01h-5.8c-3.1,0-5.6,2.51-5.6,5.6v13.66h45.94v-13.66c0-3.09-2.51-5.6-5.6-5.6Zm-.97,11.27h-32.8v-3.97h32.8v3.97Z"/>
    <path class="cls-32" d="m170.19,370.98c-1.43.82-2.66,1.9-3.67,3.15,1.03.25,1.88.95,2.34,1.88.78-.96,1.72-1.8,2.82-2.43l4.23-2.44-2.55-1.99-3.18,1.84Z"/>
    <path class="cls-24" d="m194.04,360.99c-.37-.56-.58-1.23-.58-1.95,0-.37.07-.73.18-1.07-1.1.29-2.18.73-3.19,1.32l-1.67.96c.19.23.36.56.27.97-.12.57-.66,2.04-.99,2.91l3.88-2.24c.67-.39,1.37-.67,2.1-.89Z"/>
    <g>
      <path class="cls-12" d="m180.51,369.31c-.38,1.04.17,2.2,1.21,2.57,1.04.38,2.2-.17,2.57-1.21.38-1.04-.17-2.2-1.21-2.57-1.04-.38-2.2.17-2.57,1.21Z"/>
      <path class="cls-9" d="m179.76,364.37c-1.5.71-2.63,1.95-3.19,3.51-.22.61.1,1.29.71,1.51.61.22,1.29-.1,1.51-.71.35-.97,1.05-1.74,1.98-2.18s1.98-.49,2.94-.14c.31.11.63.09.9-.04s.5-.36.61-.67c.22-.61-.1-1.29-.71-1.51-1.56-.56-3.24-.48-4.74.23Z"/>
      <path class="cls-16" d="m178.1,360.87c-2.43,1.15-4.28,3.17-5.19,5.71-.22.61.1,1.29.71,1.51.61.22,1.29-.1,1.51-.71.7-1.94,2.11-3.49,3.98-4.37s3.96-.98,5.9-.28c.31.11.63.09.9-.04s.5-.36.61-.67c.22-.61-.1-1.29-.71-1.51-2.53-.91-5.27-.78-7.7.37Z"/>
      <path class="cls-33" d="m187.12,356.85c-3.51-1.26-7.3-1.08-10.67.51s-5.93,4.4-7.19,7.91c-.22.61.1,1.29.71,1.51.31.11.63.09.9-.04s.5-.36.61-.67c1.05-2.92,3.17-5.25,5.98-6.57s5.96-1.47,8.87-.42c.61.22,1.28-.1,1.51-.71.22-.61-.1-1.29-.71-1.51Z"/>
    </g>
  </g>
</svg>